<svg width="14" height="13" viewBox="0 0 14 13" fill="none" xmlns="http://www.w3.org/2000/svg">
<path d="M1.44801 6.68755H5.37101L5.78041 7.30616C5.81515 7.35866 5.8601 7.40361 5.9126 7.43834L6.53121 7.84779V11.7708C6.53121 12.0297 6.74107 12.2395 6.99996 12.2395C7.2588 12.2395 7.46871 12.0297 7.46871 11.7708V8.46823L10.8138 10.6822C10.8929 10.7345 10.9828 10.7601 11.0724 10.7601C11.1934 10.7601 11.3134 10.7133 11.404 10.6228C11.5615 10.4652 11.5864 10.2184 11.4634 10.0326L9.24943 6.68755H12.552C12.8108 6.68755 13.0207 6.47769 13.0207 6.2188C13.0207 5.95991 12.8108 5.75005 12.552 5.75005H8.62895L8.21955 5.13145C8.18481 5.07895 8.13986 5.03399 8.08741 4.99926L7.4688 4.58981V0.666807C7.4688 0.407918 7.25889 0.198059 7.00005 0.198059C6.74116 0.198059 6.5313 0.407918 6.5313 0.666807V3.96933L3.18622 1.75533C3.00036 1.63233 2.75361 1.65718 2.59602 1.81477C2.43843 1.97236 2.41358 2.21911 2.53658 2.40493L4.75058 5.75005H1.44806C1.18917 5.75005 0.979309 5.95991 0.979309 6.2188C0.979309 6.47769 1.18912 6.68755 1.44801 6.68755ZM7.49036 5.7284L9.41012 8.62896L6.50955 6.7092L4.58979 3.80864L7.49036 5.7284Z" fill="#ABABAB"/>
</svg>
